<?xml version="1.0" ?><!DOCTYPE svg  PUBLIC '-//W3C//DTD SVG 1.1//EN'  'http://www.w3.org/Graphics/SVG/1.1/DTD/svg11.dtd'><svg enable-background="new 0 0 40.6579 59" id="heart-flower-vase" version="1.1" viewBox="0 0 40.6579 59" xml:space="preserve" xmlns="http://www.w3.org/2000/svg" xmlns:xlink="http://www.w3.org/1999/xlink"><g><g><g><path d="M13.1875,24.1455c-1.6367,0-3.1728-0.5293-4.5634-1.5732c-1.9659-1.4737-3.8438-4.1016-5.5821-7.8057     c-0.9072-1.9375-1.5293-3.6562-1.8203-4.5078L0.7657,8.917l1.416,0.0644c0.9023,0.042,2.7314,0.1602,4.834,0.4883     c4.0449,0.6338,7.0918,1.7032,9.0566,3.1797c2.5352,1.9004,3.085,4.3828,3.0996,6.1309     c0.0117,1.5205-0.3642,2.7431-0.5263,3.1963l-0.1026,0.2861l-0.9043,0.6455l0.0664,0.0576l-1.4756,0.5821     c-0.2656,0.1044-0.5459,0.2031-0.8496,0.288C14.6465,24.042,13.9102,24.1455,13.1875,24.1455L13.1875,24.1455z M16.003,21.4746     l-0.6055-0.5303L16.003,21.4746z M10.4131,20.9033l4.4844-0.3965l0.1231,0.1075l-0.1231-0.1084L10.4131,20.9033z      M12.5987,18.4922l-5.499-4.8184l3.9921,3.4981l-3.5244,0.3115l3.5244-0.3115L12.5987,18.4922z" fill="#bdebd4"/><path d="M18.5069,23.7275l-0.8272-0.705l0.7959-0.7393c0.0635-0.0635,0.086-0.0967,0.127-0.1924     c0.0879-0.2236,0.583-1.5742,0.5693-3.3105c-0.0146-1.7471-0.5644-4.2305-3.0996-6.1309     c-1.9648-1.4765-5.0117-2.5459-9.0566-3.1787L5.7334,9.2842L5.6885,8.375C5.6817,8.2529,5.6758,8.1328,5.6749,8.0078     C5.668,5.9814,6.3213,4.251,7.5625,3.0039C8.8311,1.7305,10.7022,1,12.6963,1c1.3575,0,2.6768,0.3301,3.8135,0.9541     c1.6651,0.916,2.6377,2.2529,3.1611,3.2139c0.1329,0.248,0.3838,0.3974,0.6602,0.3974c0.2744,0,0.5254-0.1484,0.6543-0.3886     c0.5225-0.9639,1.4951-2.3028,3.165-3.2217C25.2881,1.3301,26.6065,1,27.9629,1c1.9932,0,3.8643,0.7305,5.1348,2.0029     c1.2412,1.2461,1.8945,2.9756,1.8887,5.002c-0.001,0.1191-0.0069,0.2334-0.0137,0.3476l-0.043,0.9336l-1.2841,0.1846     c-4.043,0.6328-7.0899,1.7012-9.0557,3.1777c-2.5361,1.9014-3.0869,4.3848-3.1016,6.1328     c-0.0127,1.5411,0.3838,2.7891,0.5244,3.1817l0.0606,0.1592c0.0156,0.042,0.0381,0.082,0.0586,0.1093l0.7519,0.7276     l-0.7324,0.751l-1.8174,1.5879L18.5069,23.7275z" fill="#fdcb9e"/><path d="M27.4502,24.1416c-0.7138,0-1.4423-0.1016-2.165-0.3037c-0.4736-0.1338-0.9502-0.3125-1.4209-0.5313     l-1.4033-0.6533l-0.2236,0.1817l-0.3946-1.418c-0.167-0.5967-0.3633-1.5381-0.3545-2.6348     c0.0147-1.749,0.5655-4.2334,3.1016-6.1338c1.9658-1.4755,5.0127-2.5449,9.0557-3.1777     c2.1035-0.3291,3.9326-0.4482,4.8349-0.4893l1.416-0.0654l-0.456,1.3418c-0.2881,0.8447-0.9063,2.5547-1.8213,4.5078     c-1.7393,3.7061-3.6162,6.333-5.5801,7.8067C30.6465,23.6143,29.1036,24.1416,27.4502,24.1416L27.4502,24.1416z M24.8321,20.7354     l-0.6992,0.5654l0.7666-0.6192l-0.0674,0.0547l0.9629-4.8759L24.8321,20.7354z M27.8379,18.3037l1.2032-0.9736l4.0498,0.3594     l-4.0498-0.3594L27.8379,18.3037z" fill="#C0DFCF"/></g><g><g><path d="M35.9405,9.0186l-1.9922-0.1778c0.0249-0.2783,0.0361-0.5566,0.0381-0.8388      c0.0049-1.754-0.5469-3.2393-1.5967-4.292C31.3052,2.623,29.6919,2,27.9629,2c-1.1889,0-2.3403,0.2871-3.33,0.8311      c-1.459,0.8027-2.3096,1.9755-2.7662,2.8193c-0.3037,0.5635-0.8925,0.915-1.5356,0.915c-0.646,0-1.2358-0.3525-1.5391-0.9199      c-0.456-0.8398-1.309-2.0146-2.7631-2.8154C15.0391,2.2871,13.8863,2,12.6963,2c-1.7299,0-3.3427,0.623-4.4257,1.709      C7.2212,4.7646,6.669,6.25,6.6749,8.0049c0.0009,0.2842,0.0146,0.5625,0.0361,0.834L4.7168,8.9971      c-0.0253-0.3203-0.041-0.6494-0.0419-0.9864C4.667,5.7139,5.4205,3.7383,6.8536,2.2979C8.3096,0.8369,10.439,0,12.6963,0      c1.5249,0,3.0103,0.3721,4.2954,1.0771c1.6641,0.9161,2.7129,2.2002,3.3384,3.2325c0.625-1.0313,1.6719-2.3135,3.3394-3.2315      C24.9541,0.373,26.4385,0,27.9629,0c2.2564,0,4.3858,0.8379,5.8428,2.2979c1.4331,1.4375,2.1875,3.413,2.1807,5.7128      C35.9844,8.3525,35.9703,8.6855,35.9405,9.0186L35.9405,9.0186z" fill="#3f3f44"/></g><g><path d="M20.3335,26.5391l-0.6049-0.4571c-0.1348-0.1015-0.4449-0.3672-0.8843-0.7461      c-0.4805-0.415-1.127-0.9736-1.8745-1.5976l1.2812-1.5352c0.7578,0.6319,1.4136,1.1983,1.9004,1.6182      c0.0625,0.0547,0.1221,0.1055,0.1782,0.1543c0.3516-0.3057,0.8125-0.71,1.2871-1.1279l0.9126-0.8008l1.3184,1.5039      l-0.9106,0.7998c-1.1587,1.0176-1.774,1.5576-2.0005,1.7295L20.3335,26.5391L20.3335,26.5391z" fill="#3f3f44"/></g><g><path d="M27.4717,25.1465c-0.8135,0-1.6416-0.1172-2.4604-0.3467c-1.9341-0.5478-3.252-1.5596-3.396-1.6728      c-0.1021-0.0879-0.1909-0.1709-0.2783-0.2881c-0.0835-0.1104-0.1538-0.2383-0.2027-0.3731      c-0.0078-0.0156-0.6636-1.5781-0.646-3.6933c0.0166-1.9737,0.6377-4.7774,3.502-6.9239      c2.0976-1.5752,5.2944-2.708,9.5005-3.3662c2.7275-0.4258,4.9555-0.5078,5.5737-0.5224c0,0,0.0015,0,0.0024,0      c0.5303,0,0.9922,0.2304,1.2823,0.6162c0.2978,0.4052,0.3852,0.9189,0.2402,1.3838c-0.0015,0.0058-0.7275,2.3769-2.0649,5.2304      c-1.8101,3.8565-3.7906,6.6094-5.8863,8.1817C31.0679,24.5498,29.3296,25.1465,27.4717,25.1465L27.4717,25.1465z       M22.9576,21.6338c0.3081,0.2226,1.2714,0.8652,2.5966,1.2412c2.0782,0.582,4.1255,0.2139,5.8843-1.1025      c1.8311-1.3741,3.606-3.8741,5.2754-7.4317c0.875-1.8672,1.4741-3.5117,1.7632-4.3584      c-0.9263,0.0449-2.6748,0.1631-4.6772,0.4766c-3.8794,0.6064-6.7759,1.6123-8.6094,2.9892      c-2.2105,1.6563-2.6895,3.8194-2.7022,5.3418C22.4766,20.1836,22.837,21.2998,22.9576,21.6338L22.9576,21.6338z" fill="#3f3f44"/></g><g><path d="M22.854,23.3359c-0.2915,0-0.5805-0.1269-0.7778-0.3711c-0.3476-0.4296-0.2807-1.0586,0.1485-1.4062      l10.708-8.6621c0.4287-0.3467,1.0586-0.2803,1.4062,0.1484c0.3477,0.4297,0.2808,1.0586-0.1484,1.4063l-10.708,8.6621      C23.2974,23.2627,23.0752,23.3359,22.854,23.3359L22.854,23.3359z" fill="#3f3f44"/></g><g><path d="M33.0918,18.6895c-0.0293,0-0.059-0.001-0.0893-0.004l-3.6621-0.3242      c-0.5498-0.0488-0.9566-0.5342-0.9077-1.084c0.0488-0.5498,0.5229-0.9628,1.0844-0.9082l3.6621,0.3243      c0.5498,0.0488,0.9566,0.5341,0.9078,1.0839C34.0411,18.2979,33.6045,18.6895,33.0918,18.6895L33.0918,18.6895z" fill="#3f3f44"/></g><g><path d="M29.3038,18.1992c-0.0645,0-0.1294-0.0058-0.1954-0.0185c-0.5415-0.1075-0.894-0.6338-0.7866-1.1758      l0.7139-3.6074c0.1074-0.5411,0.6308-0.8936,1.1753-0.7871c0.5415,0.1074,0.894,0.6337,0.7866,1.1757l-0.7139,3.6075      C30.1895,17.8691,29.7715,18.1992,29.3038,18.1992L29.3038,18.1992z" fill="#3f3f44"/></g><g><path d="M29.7344,22.1074c-0.0293,0-0.0586-0.001-0.0888-0.0039l-4.6915-0.4131      c-0.5498-0.0488-0.9565-0.5332-0.9082-1.084c0.0484-0.5498,0.5284-0.9589,1.084-0.9082l4.6914,0.4131      c0.5498,0.0489,0.9566,0.5332,0.9082,1.084C30.6836,21.7158,30.2471,22.1074,29.7344,22.1074L29.7344,22.1074z" fill="#3f3f44"/></g><g><path d="M24.8838,21.4785c-0.0639,0-0.1294-0.0058-0.1948-0.0185c-0.5415-0.1075-0.894-0.6338-0.7871-1.1748      l0.9121-4.6182c0.1074-0.542,0.6318-0.8926,1.1748-0.7881c0.5415,0.1074,0.8941,0.6338,0.7871,1.1748l-0.9121,4.6182      C25.7696,21.1484,25.3516,21.4785,24.8838,21.4785L24.8838,21.4785z" fill="#3f3f44"/></g><g><path d="M13.188,25.1465h-0.0005c-1.8588,0-3.5961-0.5977-5.164-1.7744      c-2.0982-1.5742-4.0786-4.3272-5.8867-8.1817c-1.3374-2.8535-2.0635-5.2246-2.0699-5.247      c-0.1425-0.4463-0.0551-0.9639,0.2403-1.3623C0.605,8.1885,1.0674,7.959,1.5499,7.959C2.2139,7.9746,4.441,8.0566,7.17,8.4824      c4.2094,0.6592,7.4062,1.792,9.5019,3.3662c2.8628,2.1455,3.4834,4.9502,3.5,6.9239c0.0142,1.9365-0.5405,3.4355-0.6518,3.7168      c-0.065,0.1513-0.1265,0.2578-0.2012,0.3564c-0.0581,0.0811-0.146,0.1738-0.2539,0.2647      c-0.0195,0.0156-1.3696,1.1103-3.4151,1.6884C14.8291,25.0293,14.001,25.1465,13.188,25.1465L13.188,25.1465z M2.1841,9.9824      c0.292,0.8545,0.8902,2.4961,1.7632,4.3584c1.6675,3.5557,3.4429,6.0557,5.2769,7.4317c1.2143,0.9111,2.5473,1.374,3.9633,1.374      h0.0005c0.6304,0,1.2764-0.0918,1.92-0.2725c1.3398-0.3789,2.31-1.0332,2.5986-1.2431c0.1201-0.336,0.4756-1.4502,0.4653-2.8428      c-0.0127-1.5215-0.4917-3.6836-2.7002-5.3399c-1.832-1.3759-4.729-2.3818-8.6108-2.9892      C4.8531,10.1455,3.1363,10.0264,2.1841,9.9824L2.1841,9.9824z" fill="#3f3f44"/></g><g><path d="M16.9839,23.3359c-0.2339,0-0.4687-0.082-0.6587-0.248l-9.8847-8.6621      c-0.4151-0.3643-0.4571-0.9961-0.0928-1.4112c0.3633-0.415,0.9946-0.457,1.4111-0.0927l9.8848,8.6621      c0.415,0.3642,0.457,0.9961,0.0928,1.4111C17.5386,23.2207,17.2623,23.3359,16.9839,23.3359L16.9839,23.3359z" fill="#3f3f44"/></g><g><path d="M7.5665,18.4834c-0.5127,0-0.9493-0.3916-0.9952-0.9121c-0.0483-0.5498,0.3579-1.0352,0.9082-1.084      l3.6631-0.3232c0.5518-0.0479,1.0357,0.3584,1.084,0.9082c0.0483,0.5498-0.3579,1.0351-0.9082,1.0839l-3.6631,0.3233      C7.6255,18.4824,7.5957,18.4834,7.5665,18.4834L7.5665,18.4834z" fill="#3f3f44"/></g><g><path d="M11.3545,17.9922c-0.4682,0-0.8862-0.3301-0.9799-0.8067l-0.712-3.6054      c-0.1069-0.541,0.2456-1.0674,0.7872-1.1748c0.5429-0.1055,1.0683,0.2461,1.1748,0.7881l0.7119,3.6054      c0.1069,0.541-0.2456,1.0674-0.7871,1.1748C11.4839,17.9863,11.4185,17.9922,11.3545,17.9922L11.3545,17.9922z" fill="#3f3f44"/></g><g><path d="M10.4122,21.9033c-0.5127,0-0.9493-0.3916-0.9952-0.9121c-0.0488-0.5498,0.3579-1.0351,0.9078-1.084      l4.6904-0.415c0.5635-0.0518,1.0361,0.3584,1.0845,0.9082c0.0488,0.5498-0.358,1.0351-0.9078,1.084l-4.6904,0.415      C10.4712,21.9023,10.4415,21.9033,10.4122,21.9033L10.4122,21.9033z" fill="#3f3f44"/></g><g><path d="M15.2637,21.2744c-0.4678,0-0.8857-0.3301-0.98-0.8057l-0.913-4.6191      c-0.107-0.542,0.2451-1.0684,0.7871-1.1758c0.5434-0.1035,1.0678,0.2471,1.1748,0.7871l0.9131,4.6192      c0.1069,0.542-0.2452,1.0683-0.7872,1.1758C15.3931,21.2686,15.3277,21.2744,15.2637,21.2744L15.2637,21.2744z" fill="#3f3f44"/></g></g><g><polygon fill="#3f3f44" points="21.2579,48.7988 19.2579,48.7988 19.2579,23.998 21.2579,23.998 21.2579,48.7988    "/></g></g><g><path d="M10.1324,26.8506c2.6533,0,4.7993,0.1318,4.7993,4.0205v2.0088c0,6.1797-3.3447,7.956-6.0889,10.0205    c-2.2046,1.6621-3.5117,3.9961-3.5117,6.4814C5.3311,54.1436,9.9415,58,15.6231,58h6.5078h2.9082    c5.6846,0,10.292-3.8564,10.292-8.6182c0-2.4853-1.3076-4.8193-3.5117-6.4814c-2.7432-2.0645-6.0889-3.8408-6.0889-10.0205    v-2.0088c0-3.8887,2.1485-4.0205,4.7988-4.0205H10.1324z" fill="#f7f7f7"/><rect fill="#fdcb9e" height="3.584" width="11.4448" x="14.5601" y="27.166"/><g><path d="M25.0391,59h-9.416c-6.2266,0-11.292-4.3145-11.292-9.6182c0-2.7529,1.4248-5.4062,3.9097-7.2802     c0.268-0.2012,0.541-0.4004,0.8164-0.5996c2.5068-1.8233,4.8745-3.544,4.8745-8.6221v-2.0088     c0-2.9043-1.0967-3.0205-3.7993-3.0205c-0.5523,0-1-0.4473-1-1s0.4477-1,1-1h20.3969c0.5523,0,1,0.4473,1,1s-0.4477,1-1,1     c-2.7021,0-3.7988,0.1162-3.7988,3.0205v2.0088c0,5.0771,2.3672,6.7988,4.8735,8.6211c0.2754,0.2002,0.5489,0.3984,0.8169,0.6006     c2.4854,1.874,3.9102,4.5273,3.9102,7.2802C36.3311,54.6855,31.2657,59,25.0391,59L25.0391,59z M15.2872,27.8506     c0.4008,0.7178,0.6445,1.6943,0.6445,3.0205v2.0088c0,6.0967-3.1597,8.3935-5.6987,10.2392     c-0.2662,0.1934-0.5303,0.3858-0.7891,0.5801c-1.978,1.4912-3.1128,3.5625-3.1128,5.6826c0,4.2002,4.1685,7.6182,9.292,7.6182     h9.416c5.1235,0,9.292-3.418,9.292-7.6182c0-2.1191-1.1348-4.1904-3.1138-5.6826c-0.2583-0.1943-0.5229-0.3867-0.7895-0.581     c-2.5381-1.8457-5.6973-4.1426-5.6973-10.2383v-2.0088c0-1.3262,0.2437-2.3027,0.6445-3.0205H15.2872L15.2872,27.8506z" fill="#3f3f44"/></g><g><path d="M18.0166,55.0186c-4.0854,0-7.6513-2.6094-8.187-6.1622c-0.0825-0.5468,0.2935-1.0556,0.8399-1.1386     c0.5425-0.0723,1.0552,0.2939,1.1377,0.8398c0.4223,2.8028,3.5737,4.7901,7.0156,4.419     c0.5513-0.0625,1.0415,0.3388,1.1001,0.8886c0.0581,0.5489-0.3398,1.042-0.8892,1.0996     C18.6924,55.001,18.3526,55.0186,18.0166,55.0186L18.0166,55.0186z" fill="#3f3f44"/></g></g></g></svg>
